<svg width="24px" height="24px" viewBox="0 0 16.933333 16.933333" version="1.1" id="svg1" xml:space="preserve" sodipodi:docname="Pages_Logo.svg" inkscape:version="1.4 (86a8ad7, 2024-10-11)" xmlns:inkscape="http://www.inkscape.org/namespaces/inkscape" xmlns:sodipodi="http://sodipodi.sourceforge.net/DTD/sodipodi-0.dtd" xmlns="http://www.w3.org/2000/svg" xmlns:svg="http://www.w3.org/2000/svg" transform="rotate(0) scale(1, 1)"><sodipodi:namedview id="namedview1" pagecolor="#ffffff" bordercolor="#666666" borderopacity="1.0" inkscape:showpageshadow="2" inkscape:pageopacity="0.0" inkscape:pagecheckerboard="0" inkscape:deskcolor="#d1d1d1" inkscape:zoom="6.4181491" inkscape:cx="41.678683" inkscape:cy="29.21403" inkscape:window-width="2560" inkscape:window-height="1417" inkscape:window-x="-8" inkscape:window-y="-8" inkscape:window-maximized="1" inkscape:current-layer="svg1"/><defs id="defs1"><linearGradient id="swatch31"><stop style="stop-color:#e0e0e0;stop-opacity:1;" offset="0" id="stop31"/></linearGradient></defs><g id="layer1" transform="translate(-26.616179,1.504985)"><g id="g1" transform="translate(-42.068748,-23.812499)"><g id="g41" transform="matrix(1.1595251,0,0,1.1595251,9.2039871,1.9642727)" style="display:inline"><path id="path40" style="fill:#e0e0e0;fill-opacity:1;stroke:#e0e0e0;stroke-width:0.499999;stroke-linecap:square;stroke-linejoin:round;stroke-dasharray:none" transform="translate(1.1459181,17.469405)" d="m 56.869129,4.5445092 c 0.679214,-0.088592 -1.463892,-2.7666208 -2.837747,-2.3928884 -1.373855,0.3737324 -2.703052,3.6143537 -2.900789,5.0245524 -0.197737,1.4101987 0.261637,3.4221008 1.152343,4.2477758 0.890706,0.825675 2.55629,1.480089 3.643358,1.104285 1.087068,-0.375804 0.834727,-2.7662797 1.588408,-3.3769035 0.753681,-0.6106242 2.146624,-0.3923592 2.659722,-0.8739116 0.513098,-0.4815524 1.099279,-1.4577798 0.748695,-1.805415 C 60.572535,6.1243687 60.347671,7.2000168 59.751444,7.4328078 59.155217,7.6655988 57.77586,8.1094816 57.04585,8.6696377 56.31584,9.2297938 56.718904,10.732646 55.817973,11.105823 54.917042,11.479001 53.558451,11.078313 52.939636,10.4595 52.320821,9.8406853 52.287247,8.1861775 52.445412,7.2802241 c 0.158165,-0.9059534 0.575308,-3.5292988 1.74138,-3.6344289 1.166072,-0.1051301 2.003123,0.9873063 2.682337,0.898714 z"/><path id="path41" style="fill:#e0e0e0;fill-opacity:1;stroke:#e0e0e0;stroke-width:0.499999;stroke-linecap:square;stroke-linejoin:round" transform="translate(1.6660256,17.925129)" d="m 57.832223,10.547919 c 0,0 0.17983,1.59191 1.023963,1.579509 0.844133,-0.0124 1.976068,-0.820496 2.708716,-1.451916 0.732648,-0.631421 1.530949,-2.3517248 1.679729,-3.200642 0.14878,-0.8489172 0.03098,-1.5660116 -0.470314,-2.3802644 -0.50129,-0.8142528 -1.588215,-3.4063889 -2.593049,-3.4169555 -1.004834,-0.010567 -1.974583,2.0763328 -2.79246,2.6346132 -0.817877,0.5582804 -1.345274,0.6628234 -2.060517,1.3206838 -0.715243,0.6578604 -1.452739,1.7887227 -1.284516,2.3828088 0.168223,0.5940861 0.954836,1.1567624 0.954836,1.1567624 0,0 0.425855,-2.3450192 1.122378,-2.8820003 0.696523,-0.5369811 1.300202,-0.1112236 2.04009,-0.6033464 0.739888,-0.4921228 1.425118,-2.8571108 2.166661,-2.8442919 0.741543,0.012819 0.989254,2.0325145 1.276621,2.6263499 0.287367,0.5938354 0.534049,1.3214978 0.394622,2.0056404 -0.139427,0.6841426 -1.091981,2.760964 -1.883885,3.295933 -0.791904,0.534969 -2.282875,-0.222884 -2.282875,-0.222884 z"/></g></g></g></svg>
